<svg width="34" height="34" viewBox="0 0 34 34" fill="none" xmlns="http://www.w3.org/2000/svg">
<path d="M1.66699 28.5C1.66699 26.4666 2.47473 24.5166 3.91251 23.0788C5.35029 21.641 7.30033 20.8333 9.33366 20.8333H24.667C26.7003 20.8333 28.6504 21.641 30.0881 23.0788C31.5259 24.5166 32.3337 26.4666 32.3337 28.5C32.3337 29.5166 31.9298 30.4917 31.2109 31.2105C30.492 31.9294 29.517 32.3333 28.5003 32.3333H5.50033C4.48366 32.3333 3.50864 31.9294 2.78975 31.2105C2.07086 30.4917 1.66699 29.5166 1.66699 28.5Z" stroke="#EDEDED" stroke-width="2.5" stroke-linejoin="round"/>
<path d="M17.0004 13.1666C20.176 13.1666 22.7504 10.5923 22.7504 7.41663C22.7504 4.24099 20.176 1.66663 17.0004 1.66663C13.8247 1.66663 11.2504 4.24099 11.2504 7.41663C11.2504 10.5923 13.8247 13.1666 17.0004 13.1666Z" stroke="#EDEDED" stroke-width="2.5"/>
</svg>
