<svg width="38" height="39" viewBox="0 0 38 39" fill="none" xmlns="http://www.w3.org/2000/svg">
<path fill-rule="evenodd" clip-rule="evenodd" d="M4.41675 14.625C4.41675 10.9893 5.9532 7.50256 8.6881 4.93175C11.423 2.36094 15.1323 0.916672 19.0001 0.916672C22.8678 0.916672 26.5771 2.36094 29.312 4.93175C32.047 7.50256 33.5834 10.9893 33.5834 14.625V21.9962L37.3792 29.1323C37.554 29.4608 37.6365 29.8258 37.6189 30.1926C37.6014 30.5595 37.4843 30.916 37.2789 31.2284C37.0735 31.5408 36.7866 31.7986 36.4454 31.9774C36.1041 32.1562 35.7199 32.2501 35.3292 32.25H27.0709C26.6075 33.9307 25.5635 35.4192 24.1027 36.4818C22.6419 37.5444 20.8472 38.121 19.0001 38.121C17.153 38.121 15.3582 37.5444 13.8974 36.4818C12.4367 35.4192 11.3927 33.9307 10.9292 32.25H2.67091C2.28024 32.2501 1.89604 32.1562 1.5548 31.9774C1.21356 31.7986 0.926616 31.5408 0.721214 31.2284C0.515813 30.916 0.398776 30.5595 0.381221 30.1926C0.363666 29.8258 0.446175 29.4608 0.620912 29.1323L4.41675 21.9962V14.625ZM15.3917 32.25C15.7575 32.8454 16.2834 33.3398 16.9168 33.6835C17.5502 34.0272 18.2687 34.2082 19.0001 34.2082C19.7314 34.2082 20.4499 34.0272 21.0833 33.6835C21.7167 33.3398 22.2427 32.8454 22.6084 32.25H15.3917ZM19.0001 4.83334C16.2374 4.83334 13.5879 5.86496 11.6344 7.70125C9.68088 9.53755 8.58341 12.0281 8.58341 14.625V21.9962C8.58337 22.6039 8.43287 23.2033 8.14383 23.7469L5.70633 28.3333H32.2959L29.8584 23.7469C29.5686 23.2035 29.4174 22.6041 29.4167 21.9962V14.625C29.4167 12.0281 28.3193 9.53755 26.3658 7.70125C24.4123 5.86496 21.7628 4.83334 19.0001 4.83334Z" fill="white"/>
</svg>
